# xmcd CD database file
#
# Track frame offsets:
#	150
#	13576
#	27243
#	42333
#	57730
#	70562
#	83824
#	97183
#	110363
#	124491
#	139580
#	152209
#	167620
#	183331
#
# Disc length: 2599 seconds
#
# Revision: 0
# Processed by: cddbd v1.5.2PL0 Copyright (c) Steve Scherf et al.
# Submitted via: CDex 2.17
#
DISCID=bd0a250e
DTITLE=Bessie Smith - Empty Bed Blues - disc 3
DYEAR=2006
DGENRE=Blues
TTITLE0=Dyin' By The Hour
TTITLE1=Empty Bed Blues (Part 1)
TTITLE2=Empty Bed Blues (Part 2)
TTITLE3=Poor Man's Blues
TTITLE4=Me And My Gin
TTITLE5=Kitchen Man
TTITLE6=Nobody Knows You When You're Down And Out
TTITLE7=On Revival Day (A Rhythmic Spiritual)
TTITLE8=Black Mountain Blues
TTITLE9=Shipwreck Blues
TTITLE10=Need A Little Sugar In My Bowl
TTITLE11=Do Your Duty
TTITLE12=Gimme A Pigfoot (And A Bottle Of Beer)
TTITLE13=Take Me For A Buggy Ride
EXTD=YEAR: 2006
EXTT0=
EXTT1=
EXTT2=
EXTT3=
EXTT4=
EXTT5=
EXTT6=
EXTT7=
EXTT8=
EXTT9=
EXTT10=
EXTT11=
EXTT12=
EXTT13=
PLAYORDER=
